HIERARCHY
ROOT Hips
{
	OFFSET 0.000000 100.481300 0.000000
	CHANNELS 6 Xposition Yposition Zposition Xrotation Yrotation Zrotation 
	JOINT Spine
	{
		OFFSET -0.279200 12.230698 -2.892100
		CHANNELS 3 Xrotation Yrotation Zrotation
		JOINT Spine1
		{
			OFFSET -0.232667 10.192268 -1.242267
			CHANNELS 3 Xrotation Yrotation Zrotation
			JOINT Spine1_split
			{
				OFFSET -0.232667 10.192268 -1.242267
				CHANNELS 3 Xrotation Yrotation Zrotation
				JOINT Spine2
				{
					OFFSET -0.232667 10.192268 -1.242267
					CHANNELS 3 Xrotation Yrotation Zrotation
					JOINT Neck
					{
						OFFSET -0.418800 17.814194 8.416900
						CHANNELS 3 Xrotation Yrotation Zrotation
						JOINT Head
						{
							OFFSET 0.000000 7.031097 3.806800
							CHANNELS 3 Xrotation Yrotation Zrotation
							JOINT HeadTop_End
							{
								OFFSET 0.000000 24.646606 12.978600
								CHANNELS 3 Xrotation Yrotation Zrotation
								End Site
								{
									OFFSET 0.000000 0.000000 0.000000
								}
							}
						}
					}
					JOINT LeftShoulder
					{
						OFFSET 8.476499 7.247704 -3.868750
						CHANNELS 3 Xrotation Yrotation Zrotation
						JOINT LeftShoulder_split
						{
							OFFSET 8.476499 7.247704 -3.868750
							CHANNELS 3 Xrotation Yrotation Zrotation
							JOINT LeftArm
							{
								OFFSET 9.308998 -2.777710 0.208600
								CHANNELS 3 Xrotation Yrotation Zrotation
								JOINT LeftForeArm
								{
									OFFSET 29.972298 0.000000 0.000000
									CHANNELS 3 Xrotation Yrotation Zrotation
									JOINT LeftHand
									{
										OFFSET 26.026505 0.000000 0.000000
										CHANNELS 3 Xrotation Yrotation Zrotation
										JOINT LeftHandThumb1
										{
											OFFSET 12.240501 -7.147949 9.207150
											CHANNELS 3 Xrotation Yrotation Zrotation
											JOINT LeftHandThumb2
											{
												OFFSET 4.138618 -2.389435 2.389433
												CHANNELS 3 Xrotation Yrotation Zrotation
												JOINT LeftHandThumb3
												{
													OFFSET 2.726913 -1.574387 1.574386
													CHANNELS 3 Xrotation Yrotation Zrotation
													JOINT LeftHandThumb4
													{
														OFFSET 3.941010 -2.275345 2.275342
														CHANNELS 3 Xrotation Yrotation Zrotation
														End Site
														{
															OFFSET 0.000000 0.000000 0.000000
														}
													}
												}
											}
										}
										JOINT LeftHandIndex1
										{
											OFFSET 24.424698 -1.985611 5.953459
											CHANNELS 3 Xrotation Yrotation Zrotation
											JOINT LeftHandIndex2
											{
												OFFSET 6.426697 0.000000 0.000000
												CHANNELS 3 Xrotation Yrotation Zrotation
												JOINT LeftHandIndex3
												{
													OFFSET 5.337898 0.000000 0.000000
													CHANNELS 3 Xrotation Yrotation Zrotation
													JOINT LeftHandIndex4
													{
														OFFSET 4.409401 0.000000 0.000000
														CHANNELS 3 Xrotation Yrotation Zrotation
														End Site
														{
															OFFSET 0.000000 0.000000 0.000000
														}
													}
												}
											}
										}
										JOINT LeftHandMiddle1
										{
											OFFSET 23.810104 0.000000 0.000000
											CHANNELS 3 Xrotation Yrotation Zrotation
											JOINT LeftHandMiddle2
											{
												OFFSET 7.176498 0.000000 0.000000
												CHANNELS 3 Xrotation Yrotation Zrotation
												JOINT LeftHandMiddle3
												{
													OFFSET 6.774902 0.000000 0.000000
													CHANNELS 3 Xrotation Yrotation Zrotation
													JOINT LeftHandMiddle4
													{
														OFFSET 5.403328 0.000000 0.000000
														CHANNELS 3 Xrotation Yrotation Zrotation
														End Site
														{
															OFFSET 0.000000 0.000000 0.000000
														}
													}
												}
											}
										}
										JOINT LeftHandRing1
										{
											OFFSET 22.908401 -0.839279 -6.020567
											CHANNELS 3 Xrotation Yrotation Zrotation
											JOINT LeftHandRing2
											{
												OFFSET 6.337502 0.000000 0.000000
												CHANNELS 3 Xrotation Yrotation Zrotation
												JOINT LeftHandRing3
												{
													OFFSET 5.779297 0.000000 0.000000
													CHANNELS 3 Xrotation Yrotation Zrotation
													JOINT LeftHandRing4
													{
														OFFSET 4.965698 0.000000 0.000000
														CHANNELS 3 Xrotation Yrotation Zrotation
														End Site
														{
															OFFSET 0.000000 0.000000 0.000000
														}
													}
												}
											}
										}
										JOINT LeftHandPinky1
										{
											OFFSET 20.037003 -1.530319 -10.950146
											CHANNELS 3 Xrotation Yrotation Zrotation
											JOINT LeftHandPinky2
											{
												OFFSET 5.254700 0.000000 0.000000
												CHANNELS 3 Xrotation Yrotation Zrotation
												JOINT LeftHandPinky3
												{
													OFFSET 4.810204 0.000000 0.000000
													CHANNELS 3 Xrotation Yrotation Zrotation
													JOINT LeftHandPinky4
													{
														OFFSET 3.647202 0.000000 0.000000
														CHANNELS 3 Xrotation Yrotation Zrotation
														End Site
														{
															OFFSET 0.000000 0.000000 0.000000
														}
													}
												}
											}
										}
									}
								}
							}
						}
					}
					JOINT RightShoulder
					{
						OFFSET -7.570500 7.247704 -3.868750
						CHANNELS 3 Xrotation Yrotation Zrotation
						JOINT RightShoulder_split
						{
							OFFSET -7.570500 7.247704 -3.868750
							CHANNELS 3 Xrotation Yrotation Zrotation
							JOINT RightArm
							{
								OFFSET -9.308998 -2.777710 0.208500
								CHANNELS 3 Xrotation Yrotation Zrotation
								JOINT RightForeArm
								{
									OFFSET -29.972300 0.000000 0.000000
									CHANNELS 3 Xrotation Yrotation Zrotation
									JOINT RightHand
									{
										OFFSET -26.026505 0.000000 0.000000
										CHANNELS 3 Xrotation Yrotation Zrotation
										JOINT RightHandThumb1
										{
											OFFSET -12.240601 -7.148026 9.207092
											CHANNELS 3 Xrotation Yrotation Zrotation
											JOINT RightHandThumb2
											{
												OFFSET -4.138618 -2.389435 2.389433
												CHANNELS 3 Xrotation Yrotation Zrotation
												JOINT RightHandThumb3
												{
													OFFSET -2.726974 -1.574417 1.574421
													CHANNELS 3 Xrotation Yrotation Zrotation
													JOINT RightHandThumb4
													{
														OFFSET -3.941010 -2.275345 2.275343
														CHANNELS 3 Xrotation Yrotation Zrotation
														End Site
														{
															OFFSET 0.000000 0.000000 0.000000
														}
													}
												}
											}
										}
										JOINT RightHandIndex1
										{
											OFFSET -24.424698 -1.985657 5.953444
											CHANNELS 3 Xrotation Yrotation Zrotation
											JOINT RightHandIndex2
											{
												OFFSET -6.426697 0.000000 0.000000
												CHANNELS 3 Xrotation Yrotation Zrotation
												JOINT RightHandIndex3
												{
													OFFSET -5.337898 0.000000 0.000000
													CHANNELS 3 Xrotation Yrotation Zrotation
													JOINT RightHandIndex4
													{
														OFFSET -4.409401 0.000000 0.000000
														CHANNELS 3 Xrotation Yrotation Zrotation
														End Site
														{
															OFFSET 0.000000 0.000000 0.000000
														}
													}
												}
											}
										}
										JOINT RightHandMiddle1
										{
											OFFSET -23.810097 0.000000 0.000000
											CHANNELS 3 Xrotation Yrotation Zrotation
											JOINT RightHandMiddle2
											{
												OFFSET -7.176498 0.000000 0.000000
												CHANNELS 3 Xrotation Yrotation Zrotation
												JOINT RightHandMiddle3
												{
													OFFSET -6.774902 0.000000 0.000000
													CHANNELS 3 Xrotation Yrotation Zrotation
													JOINT RightHandMiddle4
													{
														OFFSET -5.403328 0.000000 0.000000
														CHANNELS 3 Xrotation Yrotation Zrotation
														End Site
														{
															OFFSET 0.000000 0.000000 0.000000
														}
													}
												}
											}
										}
										JOINT RightHandRing1
										{
											OFFSET -22.908302 -0.839325 -6.020576
											CHANNELS 3 Xrotation Yrotation Zrotation
											JOINT RightHandRing2
											{
												OFFSET -6.337502 0.000000 0.000000
												CHANNELS 3 Xrotation Yrotation Zrotation
												JOINT RightHandRing3
												{
													OFFSET -5.779297 0.000000 0.000000
													CHANNELS 3 Xrotation Yrotation Zrotation
													JOINT RightHandRing4
													{
														OFFSET -4.965698 0.000000 0.000000
														CHANNELS 3 Xrotation Yrotation Zrotation
														End Site
														{
															OFFSET 0.000000 0.000000 0.000000
														}
													}
												}
											}
										}
										JOINT RightHandPinky1
										{
											OFFSET -20.037003 -1.530334 -10.950259
											CHANNELS 3 Xrotation Yrotation Zrotation
											JOINT RightHandPinky2
											{
												OFFSET -5.254700 0.000000 0.000000
												CHANNELS 3 Xrotation Yrotation Zrotation
												JOINT RightHandPinky3
												{
													OFFSET -4.810204 0.000000 0.000000
													CHANNELS 3 Xrotation Yrotation Zrotation
													JOINT RightHandPinky4
													{
														OFFSET -3.647202 0.000000 0.000000
														CHANNELS 3 Xrotation Yrotation Zrotation
														End Site
														{
															OFFSET 0.000000 0.000000 0.000000
														}
													}
												}
											}
										}
									}
								}
							}
						}
					}
				}
			}
		}
	}
	JOINT LeftUpLeg
	{
		OFFSET 15.427100 -6.655098 0.678600
		CHANNELS 3 Xrotation Yrotation Zrotation
		JOINT LeftLeg
		{
			OFFSET 4.081073 -39.591068 13.024000
			CHANNELS 3 Xrotation Yrotation Zrotation
			JOINT LeftFoot
			{
				OFFSET -4.081074 -37.707932 -15.979700
				CHANNELS 3 Xrotation Yrotation Zrotation
				JOINT LeftToeBase
				{
					OFFSET 5.346399 -15.068900 20.645000
					CHANNELS 3 Xrotation Yrotation Zrotation
					JOINT LeftToe_End
					{
						OFFSET 2.754700 0.931300 11.300900
						CHANNELS 3 Xrotation Yrotation Zrotation
						End Site
						{
							OFFSET 0.000000 0.000000 0.000000
						}
					}
				}
			}
		}
	}
	JOINT RightUpLeg
	{
		OFFSET -15.569500 -6.655098 0.678600
		CHANNELS 3 Xrotation Yrotation Zrotation
		JOINT RightLeg
		{
			OFFSET -4.081825 -39.591045 13.023800
			CHANNELS 3 Xrotation Yrotation Zrotation
			JOINT RightFoot
			{
				OFFSET 4.081824 -37.707954 -15.979600
				CHANNELS 3 Xrotation Yrotation Zrotation
				JOINT RightToeBase
				{
					OFFSET -5.346400 -15.068900 20.645000
					CHANNELS 3 Xrotation Yrotation Zrotation
					JOINT RightToe_End
					{
						OFFSET -2.754700 0.931300 11.300900
						CHANNELS 3 Xrotation Yrotation Zrotation
						End Site
						{
							OFFSET 0.000000 0.000000 0.000000
						}
					}
				}
			}
		}
	}
}
MOTION
Frames: 4
Frame Time: 0.016667
-5.515438 84.086800 17.714911 -3.721506 -9.878326 -1.167768 5.734736 1.140990 -0.476390 4.739111 -0.064817 0.012273 0.000000 0.000000 0.000000 10.292014 26.036294 -3.377462 3.202048 7.206164 0.255005 3.577873 59.991648 -6.564256 -0.000000 -0.000000 -0.000001 8.936036 -24.743279 -2.968063 0.000000 0.000000 0.000000 -31.852836 14.094137 -57.493616 -91.088646 12.819795 -86.878606 -27.577459 -4.331864 -2.991473 0.699132 9.503389 -2.418118 5.975196 12.647538 1.348334 -23.873560 -17.664215 1.604934 0.000002 0.000002 0.000001 9.479716 -1.289768 -20.785560 0.709479 2.796406 -28.467078 0.714009 2.804784 -28.559733 0.000001 0.000000 -0.000000 10.058159 -1.800597 -20.644711 1.774261 4.200481 -45.782068 1.632179 4.057798 -43.809393 -0.000000 -0.000000 0.000001 1.254226 -0.073704 -17.945777 3.754101 5.463630 -68.965301 5.298514 9.638365 -33.747056 0.000001 0.000001 0.000000 -7.938252 1.609089 -6.495674 2.210567 4.583646 -51.475161 0.883828 3.096067 -31.858140 -0.000001 0.000002 0.000000 10.514876 19.496061 -2.041466 0.000000 0.000000 0.000000 -4.648011 40.347785 49.038958 77.661853 115.432670 -92.279360 -10.082962 20.006795 14.104952 13.942496 -4.273676 -5.300352 7.113182 -20.767445 -2.619507 -3.463301 -24.899777 -18.660463 -0.000000 0.000002 0.000001 0.357763 -5.832700 5.175841 0.094360 -0.933672 11.539909 0.777640 -2.578463 33.559947 0.000000 -0.000002 0.000002 3.764099 -12.080463 1.143762 5.714268 -4.535847 103.133562 3.160520 -4.410595 71.234973 0.000001 0.000000 0.000001 -12.155591 -12.623910 9.228345 6.566853 -4.248459 114.232366 3.755167 -4.569212 78.819666 -0.000001 0.000000 0.000001 -17.635765 -10.496858 3.325421 4.993646 -4.645054 94.147929 3.647339 -4.546598 77.463429 -0.000000 0.000000 0.000001 -29.500246 -3.610239 2.279630 41.170133 -3.055969 -2.447263 -8.186865 -6.298087 -0.507735 -0.155577 0.124031 0.112538 -0.000000 0.000001 0.000000 -20.546770 2.993910 0.503924 44.276148 9.275760 -3.743273 -20.200010 4.502806 -0.513053 -1.112971 1.816856 1.373156 -0.000000 -0.000001 -0.000000 
-6.238922 84.475571 17.660160 -3.621928 -8.426112 -1.018142 5.734258 1.168568 -0.544725 4.739295 -0.071922 0.012347 0.000000 0.000000 0.000000 10.288214 26.012979 -3.374273 3.194703 7.149670 0.254700 3.360339 59.446005 -6.494807 -0.000000 0.000000 0.000000 8.936001 -24.743274 -2.968078 0.000000 0.000000 0.000000 -31.749649 14.370501 -57.487858 -91.150186 12.779905 -87.127976 -27.586016 -4.098533 -2.879879 0.699133 9.503388 -2.418118 5.975198 12.647540 1.348336 -23.873558 -17.664216 1.604932 -0.000000 0.000000 -0.000000 9.479713 -1.289772 -20.785562 0.709479 2.796408 -28.467081 0.714013 2.804784 -28.559733 -0.000000 -0.000000 -0.000000 10.058157 -1.800602 -20.644711 1.774262 4.200479 -45.782065 1.632179 4.057796 -43.809397 0.000000 0.000000 -0.000000 1.254225 -0.073707 -17.945777 3.754100 5.463632 -68.965301 5.298513 9.638366 -33.747056 0.000002 -0.000001 0.000000 -7.938252 1.609088 -6.495677 2.210563 4.583644 -51.475164 0.883828 3.096069 -31.858137 0.000001 -0.000004 0.000001 10.514935 19.487727 -2.039796 0.000000 0.000000 0.000000 -4.646382 40.614716 49.167479 77.464857 115.453720 -92.137346 -9.777788 20.005585 13.914328 13.942495 -4.273676 -5.300350 7.113183 -20.767443 -2.619508 -3.463302 -24.899774 -18.660461 -0.000003 0.000001 -0.000003 0.357761 -5.832699 5.175839 0.094361 -0.933674 11.539909 0.777640 -2.578463 33.559947 -0.000000 0.000000 0.000001 3.764098 -12.080462 1.143761 5.714269 -4.535847 103.133562 3.160520 -4.410595 71.234966 -0.000000 -0.000001 0.000000 -12.155592 -12.623909 9.228345 6.566856 -4.248459 114.232366 3.755168 -4.569212 78.819673 0.000001 0.000000 -0.000000 -17.635769 -10.496858 3.325422 4.993643 -4.645055 94.147929 3.647338 -4.546599 77.463423 -0.000000 0.000000 -0.000001 -29.394761 -4.532944 2.010391 40.136671 -3.630862 -2.291970 -7.462076 -6.193936 -0.941057 -0.158492 0.126120 0.114677 0.000000 -0.000001 0.000000 -19.863268 2.210834 0.209304 43.393845 8.779986 -3.086792 -20.013414 4.589052 -0.858576 1.238633 2.059424 2.368090 0.000000 -0.000000 0.000000 
-6.951537 84.850037 17.564262 -3.526865 -6.875146 -0.856942 5.728312 1.192305 -0.612642 4.738550 -0.077031 0.013274 0.000000 0.000000 0.000000 10.277605 25.957786 -3.363604 3.181540 7.089881 0.250238 3.168560 58.869148 -6.463694 -0.000000 0.000000 0.000000 8.936022 -24.743206 -2.968082 0.000000 0.000000 0.000000 -31.626477 14.382066 -57.607865 -91.448720 12.658935 -87.264887 -27.549385 -3.888641 -2.758370 0.699134 9.503389 -2.418118 5.975195 12.647537 1.348334 -23.873558 -17.664218 1.604934 0.000001 -0.000000 0.000001 9.479713 -1.289770 -20.785560 0.709480 2.796407 -28.467084 0.714012 2.804782 -28.559733 -0.000000 -0.000000 -0.000000 10.058157 -1.800599 -20.644711 1.774262 4.200476 -45.782068 1.632180 4.057797 -43.809390 -0.000002 0.000000 0.000001 1.254225 -0.073705 -17.945777 3.754101 5.463632 -68.965301 5.298514 9.638369 -33.747060 0.000000 -0.000001 -0.000003 -7.938251 1.609087 -6.495674 2.210566 4.583645 -51.475157 0.883827 3.096067 -31.858140 -0.000002 0.000000 0.000000 10.515038 19.480683 -2.038389 0.000000 0.000000 0.000000 -4.644160 40.827422 49.316531 77.224311 115.480139 -92.086209 -9.525331 19.966342 13.905994 13.942495 -4.273675 -5.300349 7.113183 -20.767445 -2.619507 -3.463301 -24.899777 -18.660463 -0.000003 0.000000 -0.000001 0.357762 -5.832698 5.175841 0.094360 -0.933675 11.539905 0.777640 -2.578463 33.559947 0.000000 0.000000 -0.000004 3.764098 -12.080463 1.143762 5.714270 -4.535847 103.133562 3.160520 -4.410596 71.234973 -0.000000 -0.000000 -0.000000 -12.155594 -12.623911 9.228345 6.566852 -4.248457 114.232366 3.755167 -4.569211 78.819673 -0.000000 -0.000001 -0.000000 -17.635765 -10.496859 3.325422 4.993646 -4.645053 94.147935 3.647338 -4.546598 77.463423 -0.000002 0.000000 0.000000 -29.375810 -5.419783 1.644407 39.057194 -4.461557 -2.136150 -6.616863 -5.914601 -1.279251 -0.160428 0.128133 0.116062 -0.000000 0.000001 0.000000 -19.161047 1.385262 -0.058427 42.602738 8.165191 -2.522687 -19.945339 4.660380 -1.293716 2.158487 2.207360 2.747536 -0.000000 0.000000 -0.000000 
-7.619487 85.168907 17.394154 -3.436010 -5.186211 -0.698129 5.714500 1.214276 -0.668155 4.738978 -0.070926 0.012768 0.000000 0.000000 0.000000 10.249794 25.856277 -3.366810 3.164824 7.027055 0.241470 2.845042 57.878736 -6.391092 0.000000 -0.000000 -0.000000 8.936045 -24.743243 -2.968068 0.000000 0.000000 0.000000 -31.289411 14.458621 -57.880287 -91.904396 12.475132 -87.595414 -27.473751 -3.547114 -2.576792 0.699134 9.503387 -2.418116 5.975198 12.647538 1.348334 -23.873560 -17.664216 1.604933 -0.000001 0.000001 0.000000 9.479716 -1.289769 -20.785560 0.709479 2.796409 -28.467081 0.714011 2.804782 -28.559738 -0.000000 0.000000 -0.000001 10.058158 -1.800601 -20.644710 1.774261 4.200478 -45.782068 1.632180 4.057797 -43.809390 -0.000001 0.000000 0.000002 1.254227 -0.073704 -17.945777 3.754103 5.463633 -68.965308 5.298510 9.638367 -33.747056 -0.000002 -0.000001 -0.000001 -7.938249 1.609091 -6.495674 2.210566 4.583643 -51.475161 0.883830 3.096067 -31.858137 0.000000 -0.000003 0.000000 10.514849 19.501189 -2.042500 0.000000 0.000000 0.000000 -4.444137 41.110738 49.507509 76.555718 115.556036 -91.692592 -9.035371 19.920033 13.815832 13.942498 -4.273676 -5.300351 7.113184 -20.767450 -2.619505 -3.463301 -24.899779 -18.660461 -0.000002 0.000002 -0.000001 0.357763 -5.832700 5.175840 0.094359 -0.933674 11.539909 0.777640 -2.578462 33.559943 0.000000 0.000000 -0.000002 3.764100 -12.080463 1.143762 5.714269 -4.535847 103.133562 3.160521 -4.410595 71.234973 0.000000 0.000000 -0.000000 -12.155591 -12.623912 9.228345 6.566855 -4.248460 114.232366 3.755166 -4.569213 78.819666 0.000001 0.000001 0.000000 -17.635765 -10.496860 3.325422 4.993647 -4.645055 94.147929 3.647337 -4.546597 77.463429 -0.000001 0.000001 -0.000000 -29.304353 -6.243423 1.872007 38.246413 -3.197461 -2.095602 -6.052136 -6.498153 -2.293672 -0.110327 0.130088 0.237329 -0.000000 -0.000002 -0.000000 -18.525609 0.531584 -0.318866 41.967776 7.396335 -2.060950 -19.990227 4.693356 -1.717827 2.298097 2.212970 2.843243 -0.000000 0.000000 0.000000 
